<svg width="28" height="28" viewBox="0 0 28 28" fill="none" xmlns="http://www.w3.org/2000/svg">
<path d="M24.3875 3.62664C20.4408 -0.306697 14.0408 -0.306697 10.1208 3.62664C7.36085 6.35997 6.53418 10.2933 7.60085 13.76L1.33418 20.0266C0.894179 20.48 0.587513 21.3733 0.680846 22.0133L1.08085 24.92C1.22751 25.88 2.12085 26.7866 3.08085 26.92L5.98751 27.32C6.62751 27.4133 7.52085 27.12 7.97418 26.6533L9.06751 25.56C9.33418 25.3066 9.33418 24.88 9.06751 24.6133L6.48085 22.0266C6.09418 21.64 6.09418 21 6.48085 20.6133C6.86751 20.2266 7.50751 20.2266 7.89418 20.6133L10.4942 23.2133C10.7475 23.4666 11.1742 23.4666 11.4275 23.2133L14.2542 20.4C17.7075 21.48 21.6408 20.64 24.3875 17.9066C28.3208 13.9733 28.3208 7.55997 24.3875 3.62664ZM17.3342 14C15.4942 14 14.0008 12.5066 14.0008 10.6666C14.0008 8.82664 15.4942 7.3333 17.3342 7.3333C19.1742 7.3333 20.6675 8.82664 20.6675 10.6666C20.6675 12.5066 19.1742 14 17.3342 14Z" fill="#6A78D1"/>
</svg>
