<svg width="80" height="40" viewBox="0 0 80 40" fill="none" xmlns="http://www.w3.org/2000/svg">
<path d="M35.1061 35.5371C35.5103 35.6428 35.8526 35.8745 36.1331 36.2322C36.4136 36.5898 36.5538 37.0532 36.5538 37.6222C36.5538 38.3376 36.3187 38.9026 35.8485 39.3172C35.3866 39.7317 34.7596 39.939 33.9677 39.939H30.6019V31.5742H33.9429C34.6606 31.5742 35.2216 31.7693 35.6258 32.1595C36.0382 32.5497 36.2445 33.0496 36.2445 33.6593C36.2445 34.1714 36.1207 34.586 35.8733 34.903C35.634 35.2119 35.3783 35.4152 35.1061 35.5127V35.5371ZM35.1432 33.8178C35.1432 33.4032 35.0153 33.0821 34.7596 32.8545C34.5121 32.6269 34.1698 32.5131 33.7326 32.5131H31.6909V35.1713H33.7202C34.1822 35.1713 34.5327 35.0494 34.772 34.8055C35.0195 34.5535 35.1432 34.2243 35.1432 33.8178ZM33.9429 39.0123C34.4131 39.0123 34.7802 38.8863 35.0442 38.6343C35.3164 38.3823 35.4525 38.0165 35.4525 37.5369C35.4525 37.0491 35.3123 36.6793 35.0318 36.4272C34.7596 36.1752 34.3719 36.0492 33.8687 36.0492H31.6909V39.0123H33.9429Z" fill="#6A78D1"/>
<path d="M42.0116 33.9641H43.1005V39.939H42.0735L42.024 39.0611C41.6033 39.687 40.9805 40 40.1555 40C39.4956 40 38.9718 39.809 38.584 39.4269C38.2046 39.0367 38.0148 38.5164 38.0148 37.8661V33.9641H39.1161V37.7076C39.1161 38.1466 39.2316 38.488 39.4626 38.7319C39.7018 38.9676 40.04 39.0855 40.4773 39.0855C40.931 39.0855 41.2981 38.9392 41.5785 38.6465C41.8673 38.3457 42.0116 37.9433 42.0116 37.4393V33.9641Z" fill="#6A78D1"/>
<path d="M45.7208 35.5859C45.7208 35.8298 45.8446 36.0208 46.092 36.159C46.3395 36.2891 46.6365 36.3866 46.983 36.4516C47.3377 36.5167 47.6924 36.602 48.0471 36.7077C48.4018 36.8053 48.7029 36.9882 48.9504 37.2564C49.1979 37.5166 49.3217 37.8702 49.3217 38.3173C49.3217 38.8213 49.1072 39.2277 48.6782 39.5366C48.2575 39.8455 47.6635 40 46.8964 40C45.3125 40 44.5082 39.3944 44.4834 38.1831L45.4857 38.1953C45.5187 38.4961 45.6425 38.7197 45.8569 38.866C46.0797 39.0123 46.4303 39.0855 46.9087 39.0855C47.7996 39.0855 48.2451 38.8294 48.2451 38.3173C48.2451 38.0653 48.1214 37.8702 47.8739 37.732C47.6264 37.5938 47.3253 37.4881 46.9706 37.4149C46.6241 37.3418 46.2735 37.2564 45.9188 37.1589C45.5641 37.0613 45.263 36.8825 45.0155 36.6223C44.768 36.3622 44.6443 36.0167 44.6443 35.5859C44.6443 35.0819 44.8505 34.6754 45.263 34.3665C45.6754 34.0576 46.2447 33.9032 46.9706 33.9032C47.6965 33.9032 48.2492 34.0617 48.6287 34.3787C49.0082 34.6876 49.2103 35.1347 49.235 35.72L48.2204 35.7078C48.1709 35.1144 47.746 34.8177 46.9458 34.8177C46.1292 34.8177 45.7208 35.0737 45.7208 35.5859Z" fill="#6A78D1"/>
<path d="M52.0771 32.0131C52.0771 32.2245 52.0028 32.3993 51.8544 32.5375C51.7141 32.6757 51.5368 32.7448 51.3223 32.7448C51.1078 32.7448 50.9263 32.6757 50.7778 32.5375C50.6376 32.3993 50.5675 32.2245 50.5675 32.0131C50.5675 31.8099 50.6376 31.6392 50.7778 31.501C50.9263 31.3547 51.1078 31.2815 51.3223 31.2815C51.5368 31.2815 51.7141 31.3547 51.8544 31.501C52.0028 31.6392 52.0771 31.8099 52.0771 32.0131ZM50.7407 39.939V33.9641H51.842V39.939H50.7407Z" fill="#6A78D1"/>
<path d="M56.6722 33.9032C57.3486 33.9032 57.8807 34.1023 58.2684 34.5006C58.6644 34.8908 58.8624 35.4477 58.8624 36.1712V39.939H57.7611V36.3907C57.7611 35.8867 57.6415 35.5005 57.4022 35.2323C57.1713 34.9559 56.8289 34.8177 56.3752 34.8177C55.8802 34.8177 55.4843 34.9681 55.1873 35.2688C54.8903 35.5615 54.7418 35.9598 54.7418 36.4638V39.939H53.6529V33.9641H54.68L54.7295 34.8543C55.1749 34.2202 55.8225 33.9032 56.6722 33.9032Z" fill="#6A78D1"/>
<path d="M65.8849 36.9638V37.232H61.356C61.3973 37.8092 61.5746 38.2644 61.8881 38.5977C62.2098 38.9229 62.6347 39.0855 63.1626 39.0855C63.6493 39.0855 64.0164 38.9879 64.2639 38.7928C64.5196 38.5896 64.6805 38.3417 64.7465 38.049H65.8478C65.724 38.6343 65.4353 39.1058 64.9816 39.4635C64.5279 39.8212 63.9174 40 63.1502 40C62.2263 40 61.5086 39.7195 60.9972 39.1586C60.4857 38.5977 60.23 37.8661 60.23 36.9638C60.23 36.0696 60.4981 35.3379 61.0343 34.7689C61.5788 34.1917 62.2758 33.9032 63.1255 33.9032C63.9752 33.9032 64.6475 34.1755 65.1425 34.7201C65.6374 35.2567 65.8849 36.0045 65.8849 36.9638ZM64.2515 35.2323C63.9711 34.9559 63.5998 34.8177 63.1379 34.8177C62.6759 34.8177 62.2882 34.964 61.9747 35.2567C61.6695 35.5412 61.4715 35.9354 61.3808 36.4394H64.7836C64.7176 35.911 64.5403 35.5087 64.2515 35.2323Z" fill="#6A78D1"/>
<path d="M68.1366 35.5859C68.1366 35.8298 68.2603 36.0208 68.5078 36.159C68.7553 36.2891 69.0523 36.3866 69.3987 36.4516C69.7534 36.5167 70.1082 36.602 70.4629 36.7077C70.8176 36.8053 71.1187 36.9882 71.3662 37.2564C71.6137 37.5166 71.7374 37.8702 71.7374 38.3173C71.7374 38.8213 71.5229 39.2277 71.094 39.5366C70.6732 39.8455 70.0793 40 69.3121 40C67.7282 40 66.9239 39.3944 66.8992 38.1831L67.9015 38.1953C67.9345 38.4961 68.0582 38.7197 68.2727 38.866C68.4954 39.0123 68.846 39.0855 69.3245 39.0855C70.2154 39.0855 70.6609 38.8294 70.6609 38.3173C70.6609 38.0653 70.5371 37.8702 70.2896 37.732C70.0422 37.5938 69.7411 37.4881 69.3864 37.4149C69.0399 37.3418 68.6893 37.2564 68.3346 37.1589C67.9798 37.0613 67.6787 36.8825 67.4313 36.6223C67.1838 36.3622 67.06 36.0167 67.06 35.5859C67.06 35.0819 67.2663 34.6754 67.6787 34.3665C68.0912 34.0576 68.6604 33.9032 69.3864 33.9032C70.1123 33.9032 70.665 34.0617 71.0445 34.3787C71.4239 34.6876 71.626 35.1347 71.6508 35.72L70.6361 35.7078C70.5866 35.1144 70.1618 34.8177 69.3616 34.8177C68.5449 34.8177 68.1366 35.0737 68.1366 35.5859Z" fill="#6A78D1"/>
<path d="M73.9731 35.5859C73.9731 35.8298 74.0969 36.0208 74.3443 36.159C74.5918 36.2891 74.8888 36.3866 75.2353 36.4516C75.59 36.5167 75.9447 36.602 76.2994 36.7077C76.6542 36.8053 76.9553 36.9882 77.2027 37.2564C77.4502 37.5166 77.574 37.8702 77.574 38.3173C77.574 38.8213 77.3595 39.2277 76.9305 39.5366C76.5098 39.8455 75.9158 40 75.1487 40C73.5648 40 72.7605 39.3944 72.7357 38.1831L73.738 38.1953C73.771 38.4961 73.8948 38.7197 74.1092 38.866C74.332 39.0123 74.6826 39.0855 75.161 39.0855C76.052 39.0855 76.4974 38.8294 76.4974 38.3173C76.4974 38.0653 76.3737 37.8702 76.1262 37.732C75.8787 37.5938 75.5776 37.4881 75.2229 37.4149C74.8764 37.3418 74.5258 37.2564 74.1711 37.1589C73.8164 37.0613 73.5153 36.8825 73.2678 36.6223C73.0203 36.3622 72.8966 36.0167 72.8966 35.5859C72.8966 35.0819 73.1028 34.6754 73.5153 34.3665C73.9278 34.0576 74.497 33.9032 75.2229 33.9032C75.9488 33.9032 76.5015 34.0617 76.881 34.3787C77.2605 34.6876 77.4626 35.1347 77.4873 35.72L76.4727 35.7078C76.4232 35.1144 75.9983 34.8177 75.1982 34.8177C74.3815 34.8177 73.9731 35.0737 73.9731 35.5859Z" fill="#6A78D1"/>
<path d="M8.88874 9.51091C6.64349 9.51091 5.10564 10.4505 4.21369 11.7538V2.99453H0V24.5137H4.09066L4.18293 22.3315C5.01337 23.7257 6.45894 24.6653 8.73495 24.6653C12.8256 24.6653 15.4399 21.4526 15.4399 16.8456C15.4399 12.1478 12.7026 9.51091 8.88874 9.51091ZM7.78149 21.1798C5.53624 21.1798 4.21369 19.3309 4.21369 17.5427V16.6032C4.21369 14.9362 5.47472 12.9964 7.81225 12.9964C9.87296 12.9964 11.1647 14.5725 11.1647 17.0275C11.1647 19.5431 9.78069 21.1798 7.78149 21.1798Z" fill="#6A78D1"/>
<path d="M27.6499 9.66245L24.6973 18.9369C24.5743 19.3309 24.4512 19.8765 24.3282 20.6342H24.2359C24.0822 19.8765 23.9591 19.3309 23.8361 18.9369L20.8834 9.66245H16.3314L22.0522 24.8168L21.8984 25.3018C21.4063 26.9081 20.2683 27.3325 18.915 27.3325C18.2999 27.3325 17.9 27.2112 17.4694 27.0294L17.2234 30.4846C17.777 30.6664 18.7612 30.7876 19.6839 30.7876C23.0672 30.7876 24.6665 29.2116 26.0813 25.3927L26.4197 24.5137L31.9252 9.66245H27.6499Z" fill="#6A78D1"/>
<path d="M43.6269 20.8767C43.0426 21.0889 42.4582 21.2101 41.8123 21.2101C39.8746 21.2101 39.1364 20.2705 39.1364 18.8157V12.9661H43.6269V9.66245H39.1364V5.44954H35.1688V9.66245H32.7083V12.9661H34.9227V18.9975C34.9227 22.3618 37.1372 24.6653 41.1356 24.6653C42.2429 24.6653 43.1963 24.4834 43.75 24.2713L43.6269 20.8767Z" fill="#6A78D1"/>
<path d="M59.9466 17.2093C59.9466 12.663 57.3938 9.51091 52.811 9.51091C48.4435 9.51091 45.2756 12.6327 45.2756 17.1184C45.2756 21.5435 48.1667 24.6653 52.7495 24.6653C57.3015 24.6653 59.393 22.18 59.8851 19.6037H55.979C55.7329 20.3917 54.9947 21.4222 52.9648 21.4222C50.9963 21.4222 49.643 20.2705 49.3355 17.9974H59.9466V17.2093ZM52.8418 12.6024C54.5641 12.6024 55.7329 13.4814 56.0097 15.603H49.397C49.7968 13.542 51.1501 12.6024 52.8418 12.6024Z" fill="#6A78D1"/>
<path d="M79.7382 11.9747L77.9575 8.45107C77.8104 8.13619 77.577 7.86809 77.2835 7.67708C76.9899 7.48607 76.648 7.37974 76.2964 7.37012H76.2024L76.5329 6.6654C76.6835 6.34073 76.7589 5.98706 76.7535 5.6301C76.7481 5.27314 76.662 4.92185 76.5015 4.60177L74.7236 1.08095C74.5764 0.765647 74.3425 0.497275 74.0484 0.306232C73.7544 0.115188 73.4119 0.0091053 73.0598 0H66.5067C65.4525 0 64.592 0.960223 64.592 2.14225V9.51518C64.5938 9.90044 64.6916 10.2794 64.877 10.6186L67.9569 17.6378C68.0664 18.029 68.2994 18.3758 68.622 18.6282C68.9446 18.8805 69.3403 19.0253 69.7519 19.0416H76.285C76.6485 19.0323 77.0016 18.9197 77.3018 18.7175C77.602 18.5153 77.8366 18.232 77.9775 17.9017L79.7809 14.0496C79.9322 13.7227 80.0069 13.3665 79.9995 13.0073C79.9921 12.6482 79.9028 12.2952 79.7382 11.9747ZM66.1733 2.14786C66.1733 1.7969 66.3699 1.56668 66.501 1.56668H73.0541C73.1196 1.56668 73.2221 1.63406 73.2991 1.78287L75.0798 5.30368C75.1305 5.41591 75.1568 5.53739 75.1568 5.66025C75.1568 5.78312 75.1305 5.90461 75.0798 6.01683L73.7094 8.9368L73.2735 9.86894C73.1994 10.029 73.0882 10.102 73.0198 10.102H66.4867C66.3556 10.102 66.1591 9.87175 66.1591 9.52079L66.1733 2.14786ZM78.3308 13.3785L76.5244 17.2306C76.4503 17.3907 76.3392 17.4637 76.2708 17.4637H69.7376C69.6065 17.4637 69.4071 17.2306 69.4071 16.8825V11.6602H73.0341C73.3979 11.6507 73.7512 11.5377 74.0514 11.335C74.3517 11.1323 74.5861 10.8484 74.7265 10.5175L75.4702 8.93118H76.2964C76.3619 8.93118 76.4645 8.99857 76.5415 9.14738L78.3222 12.671C78.3743 12.7826 78.402 12.9038 78.4034 13.0267C78.4049 13.1495 78.3802 13.2713 78.3308 13.3841V13.3785Z" fill="#6A78D1"/>
</svg>
